<?xml version="1.0" encoding="UTF-8" standalone="no"?>
<!-- Generator: Adobe Illustrator 13.0.0, SVG Export Plug-In . SVG Version: 6.00 Build 14948)  -->

<svg
   xmlns:dc="http://purl.org/dc/elements/1.1/"
   xmlns:cc="http://creativecommons.org/ns#"
   xmlns:rdf="http://www.w3.org/1999/02/22-rdf-syntax-ns#"
   xmlns:svg="http://www.w3.org/2000/svg"
   xmlns="http://www.w3.org/2000/svg"
   xmlns:sodipodi="http://sodipodi.sourceforge.net/DTD/sodipodi-0.dtd"
   xmlns:inkscape="http://www.inkscape.org/namespaces/inkscape"
   version="1.1"
   id="Calque_1"
   x="0px"
   y="0px"
   width="530.973px"
   height="530.973px"
   viewBox="0 0 530.973 530.973"
   enable-background="new 0 0 530.973 530.973"
   xml:space="preserve"
   sodipodi:docname="Bottom_Button_Black.svg"
   inkscape:version="0.92.2 (5c3e80d, 2017-08-06)"><metadata
     id="metadata26"><rdf:RDF><cc:Work
         rdf:about=""><dc:format>image/svg+xml</dc:format><dc:type
           rdf:resource="http://purl.org/dc/dcmitype/StillImage" /><dc:title></dc:title></cc:Work></rdf:RDF></metadata><defs
     id="defs24" /><sodipodi:namedview
     pagecolor="#ffffff"
     bordercolor="#666666"
     borderopacity="1"
     objecttolerance="10"
     gridtolerance="10"
     guidetolerance="10"
     inkscape:pageopacity="0"
     inkscape:pageshadow="2"
     inkscape:window-width="1827"
     inkscape:window-height="1057"
     id="namedview22"
     showgrid="false"
     inkscape:zoom="1.6761681"
     inkscape:cx="282.66167"
     inkscape:cy="215.59248"
     inkscape:window-x="-8"
     inkscape:window-y="-8"
     inkscape:window-maximized="1"
     inkscape:current-layer="Calque_1"
     inkscape:measure-start="0,0"
     inkscape:measure-end="0,0" /><path
     style="fill:#000000;stroke:#000000;stroke-width:0.07457487"
     d=""
     id="path3743"
     inkscape:connector-curvature="0" /><path
     style="fill:#000000;stroke:#000000;stroke-width:0.07457487"
     d=""
     id="path4768"
     inkscape:connector-curvature="0" /><path
     id="path5123"
     style="fill:#000000;stroke-width:0.25263157"
     d="m 150.27148,364.70312 c -0.0416,0.006 -0.0685,0.0236 -0.0918,0.0469 -0.24594,0.24594 0.63152,5.55465 6.49023,39.22461 11.38685,65.44024 15.88468,90.75007 16.25977,91.51562 0.47438,0.96818 1.32417,1.44791 5.22461,2.94922 22.64459,8.71605 52.51885,14.94294 77.93554,16.24414 23.92888,1.22504 53.34272,-1.83895 76.29493,-7.94921 15.47444,-4.1196 24.9221,-7.13878 33.25976,-10.625 3.59919,-1.50494 19.00465,-9.16122 26.36133,-13.10157 15.73615,-8.42852 33.13267,-20.72299 47.36914,-33.47851 18.29735,-16.39397 32.84904,-33.85293 47.33594,-56.79297 6.7033,-10.61457 12.38418,-21.77253 11.08398,-21.76953 -0.1042,2.8e-4 -2.23533,0.40054 -4.73633,0.89062 -15.4031,3.01809 -69.58323,13.54863 -130.48437,25.35938 -38.69684,7.50462 -76.0984,14.77968 -83.11524,16.16797 -7.01684,1.38828 -14.23664,2.81352 -16.04296,3.16796 -1.80631,0.35442 -8.87862,1.61475 -15.7168,2.79883 l -12.4336,2.15235 -13.20898,-8.92969 c -7.26497,-4.91166 -20.88277,-14.10299 -30.26172,-20.42383 -37.19389,-25.06633 -40.89914,-27.5421 -41.52344,-27.44727 z m 267.08204,7.65626 c -0.29429,2e-5 -0.58853,0.002 -0.88282,0.002 -0.2062,0.13027 -0.40616,0.27211 -0.61132,0.40429 0.41671,-0.0791 0.87581,-0.16698 1.30273,-0.24804 0.0641,-0.0553 0.1284,-0.10224 0.19141,-0.1582 z m -269.45313,69.13281 c 0.0953,0.20502 0.1784,0.38911 0.27344,0.59375 -0.0329,-0.16939 -0.0548,-0.28285 -0.0879,-0.45313 -0.0614,-0.0465 -0.12292,-0.0933 -0.18555,-0.14062 z" /></svg>