<?xml version="1.0" encoding="UTF-8" standalone="no"?>
<!-- Generator: Adobe Illustrator 13.0.0, SVG Export Plug-In . SVG Version: 6.00 Build 14948)  -->

<svg
   xmlns:dc="http://purl.org/dc/elements/1.1/"
   xmlns:cc="http://creativecommons.org/ns#"
   xmlns:rdf="http://www.w3.org/1999/02/22-rdf-syntax-ns#"
   xmlns:svg="http://www.w3.org/2000/svg"
   xmlns="http://www.w3.org/2000/svg"
   xmlns:sodipodi="http://sodipodi.sourceforge.net/DTD/sodipodi-0.dtd"
   xmlns:inkscape="http://www.inkscape.org/namespaces/inkscape"
   version="1.1"
   id="Calque_1"
   x="0px"
   y="0px"
   width="530.973px"
   height="530.973px"
   viewBox="0 0 530.973 530.973"
   enable-background="new 0 0 530.973 530.973"
   xml:space="preserve"
   sodipodi:docname="Left_Button_Black.svg"
   inkscape:version="0.92.2 (5c3e80d, 2017-08-06)"><metadata
     id="metadata26"><rdf:RDF><cc:Work
         rdf:about=""><dc:format>image/svg+xml</dc:format><dc:type
           rdf:resource="http://purl.org/dc/dcmitype/StillImage" /><dc:title></dc:title></cc:Work></rdf:RDF></metadata><defs
     id="defs24" /><sodipodi:namedview
     pagecolor="#ffffff"
     bordercolor="#666666"
     borderopacity="1"
     objecttolerance="10"
     gridtolerance="10"
     guidetolerance="10"
     inkscape:pageopacity="0"
     inkscape:pageshadow="2"
     inkscape:window-width="1827"
     inkscape:window-height="1057"
     id="namedview22"
     showgrid="false"
     inkscape:zoom="1.6761681"
     inkscape:cx="226.04061"
     inkscape:cy="188.87367"
     inkscape:window-x="-8"
     inkscape:window-y="-8"
     inkscape:window-maximized="1"
     inkscape:current-layer="Calque_1"
     inkscape:measure-start="0,0"
     inkscape:measure-end="0,0" /><path
     style="fill:#000000;stroke:#000000;stroke-width:0.07457487"
     d=""
     id="path3743"
     inkscape:connector-curvature="0" /><path
     style="fill:#000000;stroke:#000000;stroke-width:0.07457487"
     d=""
     id="path4768"
     inkscape:connector-curvature="0" /><path
     id="path5123"
     style="fill:#000000;stroke-width:0.25263157"
     d="m 166.94922,143.17383 c -0.21766,-0.21766 -15.79222,2.45967 -82.521486,14.1875 -45.6432,8.02191 -53.643317,9.48933 -54.623046,10.01367 -0.58288,0.31195 -0.893179,1.06297 -3.011719,7.29688 -7.96667,23.4422 -12.115573,43.90182 -13.908203,68.58984 -0.40741,5.61631 -0.406766,25.22472 0.002,30.82031 1.21669,16.6705 3.246777,29.90042 6.867187,44.75195 2.5393,10.4166 5.588544,20.55633 7.058594,23.47071 0.42449,0.8416 0.646366,1.55232 0.509766,1.63672 -0.25175,0.15557 2.366137,7.3315 4.929687,13.50976 4.76275,11.47839 9.507185,20.80145 16.646485,32.71485 15.908028,26.54584 35.885558,49.51261 59.654292,68.57617 13.03505,10.45466 28.67057,20.58487 43.75391,28.34961 h 0.002 c 2.2493,1.15787 4.22603,2.10547 4.39258,2.10547 0.50792,0 0.13628,-2.32066 -2.9414,-18.31641 -6.87001,-35.70574 -31.66209,-162.5361 -39.01172,-199.57813 -2.39537,-12.07263 -3.62782,-18.68683 -6.97461,-37.41601 l -0.6836,-3.81836 0.84571,-1.23438 c 0.46521,-0.67955 8.76136,-12.60526 18.43554,-26.5 39.82973,-57.20625 40.92936,-58.80891 40.57813,-59.16015 z" /></svg>