<?xml version="1.0" encoding="UTF-8" standalone="no"?>
<!-- Generator: Adobe Illustrator 13.0.0, SVG Export Plug-In . SVG Version: 6.00 Build 14948)  -->

<svg
   xmlns:dc="http://purl.org/dc/elements/1.1/"
   xmlns:cc="http://creativecommons.org/ns#"
   xmlns:rdf="http://www.w3.org/1999/02/22-rdf-syntax-ns#"
   xmlns:svg="http://www.w3.org/2000/svg"
   xmlns="http://www.w3.org/2000/svg"
   xmlns:sodipodi="http://sodipodi.sourceforge.net/DTD/sodipodi-0.dtd"
   xmlns:inkscape="http://www.inkscape.org/namespaces/inkscape"
   version="1.1"
   id="Calque_1"
   x="0px"
   y="0px"
   width="530.973px"
   height="530.973px"
   viewBox="0 0 530.973 530.973"
   enable-background="new 0 0 530.973 530.973"
   xml:space="preserve"
   sodipodi:docname="Right_Button_Black.svg"
   inkscape:version="0.92.2 (5c3e80d, 2017-08-06)"><metadata
     id="metadata26"><rdf:RDF><cc:Work
         rdf:about=""><dc:format>image/svg+xml</dc:format><dc:type
           rdf:resource="http://purl.org/dc/dcmitype/StillImage" /><dc:title></dc:title></cc:Work></rdf:RDF></metadata><defs
     id="defs24" /><sodipodi:namedview
     pagecolor="#ffffff"
     bordercolor="#666666"
     borderopacity="1"
     objecttolerance="10"
     gridtolerance="10"
     guidetolerance="10"
     inkscape:pageopacity="0"
     inkscape:pageshadow="2"
     inkscape:window-width="1827"
     inkscape:window-height="1057"
     id="namedview22"
     showgrid="false"
     inkscape:zoom="1.1852298"
     inkscape:cx="288.65192"
     inkscape:cy="341.91186"
     inkscape:window-x="-8"
     inkscape:window-y="-8"
     inkscape:window-maximized="1"
     inkscape:current-layer="Calque_1"
     inkscape:measure-start="0,0"
     inkscape:measure-end="0,0" /><path
     style="fill:#000000;stroke:#000000;stroke-width:0.07457487"
     d=""
     id="path3743"
     inkscape:connector-curvature="0" /><path
     style="fill:#000000;stroke:#000000;stroke-width:0.07457487"
     d=""
     id="path4768"
     inkscape:connector-curvature="0" /><path
     id="path5123"
     style="fill:#000000;stroke-width:0.25263157"
     d="m 385.41797,31.326172 c -0.1038,-0.01274 -0.19011,-0.01249 -0.26172,0.002 -0.0818,0.01582 -0.14406,0.04641 -0.19141,0.09375 -0.19458,0.194594 0.11068,2.595619 1.07227,8.414063 2.62704,15.896067 27.24044,160.971752 35.77734,210.876952 3.87744,22.66674 3.5873,20.80183 5.42383,34.67383 l 1.5293,11.55664 -14.23242,20.65234 c -17.7125,25.7038 -39.22649,57.01934 -41.32422,60.14844 -0.8688,1.29595 -1.51926,2.5171 -1.44336,2.71484 0.0759,0.19773 0.40713,0.35938 0.73437,0.35938 1.04233,0 7.55434,-1.22108 75.46289,-14.14648 20.3558,-3.87446 40.98837,-7.79214 45.85157,-8.70704 4.8631,-0.91488 9.45081,-1.78504 10.19531,-1.93359 l 1.35547,-0.26953 0.86719,-1.87695 c 2.72829,-5.90509 7.68786,-21.1672 10.41796,-32.05469 5.5243,-22.03058 8.22358,-45.74582 7.76368,-68.21094 -0.5612,-27.41132 -4.53716,-50.29764 -13.69336,-78.82226 -1.2233,-3.81115 -3.33926,-9.18509 -5.22266,-13.26172 -0.353,-0.76421 -0.95095,-2.13005 -1.32812,-3.03321 -6.51671,-15.60732 -16.41833,-33.20841 -26.98243,-47.96679 -22.8532,-31.926426 -52.01029,-57.835169 -86.10156,-76.509769 -3.36204,-1.841667 -4.94336,-2.610042 -5.66992,-2.699219 z" /></svg>