<?xml version="1.0" encoding="UTF-8" standalone="no"?>
<!-- Generator: Adobe Illustrator 13.0.0, SVG Export Plug-In . SVG Version: 6.00 Build 14948)  -->

<svg
   xmlns:dc="http://purl.org/dc/elements/1.1/"
   xmlns:cc="http://creativecommons.org/ns#"
   xmlns:rdf="http://www.w3.org/1999/02/22-rdf-syntax-ns#"
   xmlns:svg="http://www.w3.org/2000/svg"
   xmlns="http://www.w3.org/2000/svg"
   xmlns:sodipodi="http://sodipodi.sourceforge.net/DTD/sodipodi-0.dtd"
   xmlns:inkscape="http://www.inkscape.org/namespaces/inkscape"
   version="1.1"
   id="Calque_1"
   x="0px"
   y="0px"
   width="530.973px"
   height="530.973px"
   viewBox="0 0 530.973 530.973"
   enable-background="new 0 0 530.973 530.973"
   xml:space="preserve"
   sodipodi:docname="Top_Button_Black.svg"
   inkscape:version="0.92.2 (5c3e80d, 2017-08-06)"><metadata
     id="metadata26"><rdf:RDF><cc:Work
         rdf:about=""><dc:format>image/svg+xml</dc:format><dc:type
           rdf:resource="http://purl.org/dc/dcmitype/StillImage" /><dc:title></dc:title></cc:Work></rdf:RDF></metadata><defs
     id="defs24" /><sodipodi:namedview
     pagecolor="#ffffff"
     bordercolor="#666666"
     borderopacity="1"
     objecttolerance="10"
     gridtolerance="10"
     guidetolerance="10"
     inkscape:pageopacity="0"
     inkscape:pageshadow="2"
     inkscape:window-width="1827"
     inkscape:window-height="1057"
     id="namedview22"
     showgrid="false"
     inkscape:zoom="1.6761681"
     inkscape:cx="193.68234"
     inkscape:cy="436.63966"
     inkscape:window-x="-8"
     inkscape:window-y="-8"
     inkscape:window-maximized="1"
     inkscape:current-layer="Calque_1"
     inkscape:measure-start="0,0"
     inkscape:measure-end="0,0" /><path
     style="fill:#000000;stroke:#000000;stroke-width:0.07457487"
     d=""
     id="path3743"
     inkscape:connector-curvature="0" /><path
     style="fill:#000000;stroke:#000000;stroke-width:0.07457487"
     d=""
     id="path4768"
     inkscape:connector-curvature="0" /><path
     id="path5123"
     style="fill:#000000;stroke-width:0.25263157"
     d="m 267.44141,2.9316406 c -20.394,0.08266 -40.80314,2.6055337 -60.52735,7.5429684 -9.50596,2.379569 -24.76546,7.144843 -31.53906,9.84961 -3.29658,1.316361 -4.78078,1.963611 -8.96484,3.902343 -0.69707,0.322998 -2.80195,1.287158 -4.67774,2.144532 -6.54849,2.993143 -18.78533,9.402246 -24.75781,12.966797 -34.58028,20.638558 -64.925343,50.54414 -86.351563,85.099609 -4.81964,7.77294 -13.689453,24.26052 -13.689453,25.44531 0,0.26534 0.173029,0.54886 0.386718,0.63086 0.501512,0.19245 11.247794,-1.76955 106.980468,-19.52734 10.49053,-1.94593 28.62334,-5.30775 40.29492,-7.47266 11.67158,-2.16491 24.29139,-4.49787 28.04297,-5.18359 34.55478,-6.31601 68.97508,-12.74314 72.37891,-13.51367 3.71131,-0.84013 19.80186,-3.67777 20.13281,-3.55079 0.19655,0.0754 14.30509,9.7815 31.35352,21.57032 37.28325,25.781 38.23816,26.43992 45.88281,31.59375 5.69038,3.83616 6.71484,4.42055 6.71484,3.83008 0,-1.37286 -2.50747,-16.80183 -12.25586,-75.419926 C 368.28232,31.347425 366.98007,23.768994 366.59375,23.150391 365.78972,21.862954 363.002,20.638626 353.73242,17.5 338.02823,12.182653 325.41363,8.956034 310.40625,6.421875 297.59184,4.2580211 284.56843,3.1027032 271.51953,2.9472656 270.16027,2.9310742 268.80101,2.92613 267.44141,2.9316406 Z" /></svg>